<?xml version="1.0" encoding="UTF-8" standalone="no"?>
<!DOCTYPE svg PUBLIC "-//W3C//DTD SVG 1.1//EN"
 "http://www.w3.org/Graphics/SVG/1.1/DTD/svg11.dtd">
<!-- Generated by graphviz version 2.43.0 (0)
 -->
<!-- Title: CubesMarkovChain Pages: 1 -->
<svg width="771pt" height="831pt"
 viewBox="0.00 0.00 770.55 831.00" xmlns="http://www.w3.org/2000/svg" xmlns:xlink="http://www.w3.org/1999/xlink">
<g id="graph0" class="graph" transform="scale(1 1) rotate(0) translate(4 827)">
<title>CubesMarkovChain</title>
<polygon fill="white" stroke="transparent" points="-4,4 -4,-827 766.55,-827 766.55,4 -4,4"/>
<!-- Start -->
<g id="node1" class="node">
<title>Start</title>
<polygon fill="none" stroke="black" points="54,-331 0,-331 0,-295 54,-295 54,-331"/>
<text text-anchor="middle" x="27" y="-309.3" font-family="Times,serif" font-size="14.00">Start</text>
</g>
<!-- BoxSegment -->
<g id="node2" class="node">
<title>BoxSegment</title>
<polygon fill="none" stroke="black" points="199.4,-688 92.4,-688 92.4,-652 199.4,-652 199.4,-688"/>
<text text-anchor="middle" x="145.9" y="-666.3" font-family="Times,serif" font-size="14.00">BoxSegment</text>
</g>
<!-- Start&#45;&gt;BoxSegment -->
<g id="edge31" class="edge">
<title>Start&#45;&gt;BoxSegment</title>
<path fill="none" stroke="black" d="M31.29,-331.13C39.03,-372.16 59.98,-474.9 90,-557 101.08,-587.29 117.67,-620.29 129.72,-642.76"/>
<polygon fill="black" stroke="black" points="126.73,-644.59 134.57,-651.71 132.88,-641.25 126.73,-644.59"/>
</g>
<!-- Staggered -->
<g id="node3" class="node">
<title>Staggered</title>
<ellipse fill="none" stroke="black" cx="361.93" cy="-421" rx="59.29" ry="18"/>
<text text-anchor="middle" x="361.93" y="-417.3" font-family="Times,serif" font-size="14.00">Staggered</text>
</g>
<!-- Start&#45;&gt;Staggered -->
<g id="edge1" class="edge">
<title>Start&#45;&gt;Staggered</title>
<path fill="none" stroke="black" d="M41.05,-339.93C51.56,-358.46 68.16,-381.83 90,-394 153.69,-429.49 238.98,-432.02 296.72,-428.42"/>
<polygon fill="black" stroke="black" points="44.08,-338.18 36.26,-331.04 37.92,-341.5 44.08,-338.18"/>
<polygon fill="black" stroke="black" points="297.09,-431.9 306.82,-427.71 296.6,-424.92 297.09,-431.9"/>
</g>
<!-- StaggeredReverse -->
<g id="node4" class="node">
<title>StaggeredReverse</title>
<ellipse fill="none" stroke="black" cx="642.31" cy="-421" rx="96.68" ry="18"/>
<text text-anchor="middle" x="642.31" y="-417.3" font-family="Times,serif" font-size="14.00">StaggeredReverse</text>
</g>
<!-- Start&#45;&gt;StaggeredReverse -->
<g id="edge2" class="edge">
<title>Start&#45;&gt;StaggeredReverse</title>
<path fill="none" stroke="black" d="M28.75,-341.26C31.52,-381.21 43.16,-453.03 90,-486 116.54,-504.68 281.78,-520.97 486.07,-481 525.64,-473.26 568.21,-456.12 598.74,-442.14"/>
<polygon fill="black" stroke="black" points="32.24,-340.92 28.19,-331.12 25.25,-341.3 32.24,-340.92"/>
<polygon fill="black" stroke="black" points="600.22,-445.31 607.81,-437.92 597.27,-438.96 600.22,-445.31"/>
</g>
<!-- Funnel -->
<g id="node7" class="node">
<title>Funnel</title>
<ellipse fill="none" stroke="black" cx="145.9" cy="-459" rx="42.79" ry="18"/>
<text text-anchor="middle" x="145.9" y="-455.3" font-family="Times,serif" font-size="14.00">Funnel</text>
</g>
<!-- Start&#45;&gt;Funnel -->
<g id="edge11" class="edge">
<title>Start&#45;&gt;Funnel</title>
<path fill="none" stroke="black" d="M34.29,-331.11C43.43,-355.34 62.38,-398.55 90,-427 94.96,-432.11 100.9,-436.67 107.02,-440.64"/>
<polygon fill="black" stroke="black" points="105.64,-443.89 116.01,-446.03 109.23,-437.89 105.64,-443.89"/>
</g>
<!-- Choose -->
<g id="node8" class="node">
<title>Choose</title>
<ellipse fill="none" stroke="black" cx="145.9" cy="-313" rx="44.39" ry="18"/>
<text text-anchor="middle" x="145.9" y="-309.3" font-family="Times,serif" font-size="14.00">Choose</text>
</g>
<!-- Start&#45;&gt;Choose -->
<g id="edge16" class="edge">
<title>Start&#45;&gt;Choose</title>
<path fill="none" stroke="black" d="M54.23,-313C65.18,-313 78.31,-313 91.14,-313"/>
<polygon fill="black" stroke="black" points="91.31,-316.5 101.31,-313 91.31,-309.5 91.31,-316.5"/>
</g>
<!-- LeftWall -->
<g id="node9" class="node">
<title>LeftWall</title>
<ellipse fill="none" stroke="black" cx="145.9" cy="-367" rx="49.29" ry="18"/>
<text text-anchor="middle" x="145.9" y="-363.3" font-family="Times,serif" font-size="14.00">LeftWall</text>
</g>
<!-- Start&#45;&gt;LeftWall -->
<g id="edge21" class="edge">
<title>Start&#45;&gt;LeftWall</title>
<path fill="none" stroke="black" d="M54.23,-325.12C69.34,-332.1 88.62,-341.01 105.52,-348.81"/>
<polygon fill="black" stroke="black" points="104.07,-352 114.62,-353.01 107.01,-345.64 104.07,-352"/>
</g>
<!-- RightWall -->
<g id="node10" class="node">
<title>RightWall</title>
<ellipse fill="none" stroke="black" cx="145.9" cy="-221" rx="55.79" ry="18"/>
<text text-anchor="middle" x="145.9" y="-217.3" font-family="Times,serif" font-size="14.00">RightWall</text>
</g>
<!-- Start&#45;&gt;RightWall -->
<g id="edge22" class="edge">
<title>Start&#45;&gt;RightWall</title>
<path fill="none" stroke="black" d="M44.61,-294.74C56.55,-282.18 73.4,-265.57 90,-253 95.38,-248.93 101.32,-244.97 107.24,-241.32"/>
<polygon fill="black" stroke="black" points="109.05,-244.31 115.85,-236.19 105.47,-238.3 109.05,-244.31"/>
</g>
<!-- Forest -->
<g id="node17" class="node">
<title>Forest</title>
<ellipse fill="none" stroke="black" cx="145.9" cy="-126" rx="40.09" ry="18"/>
<text text-anchor="middle" x="145.9" y="-122.3" font-family="Times,serif" font-size="14.00">Forest</text>
</g>
<!-- Start&#45;&gt;Forest -->
<g id="edge43" class="edge">
<title>Start&#45;&gt;Forest</title>
<path fill="none" stroke="black" d="M33.44,-284.69C41.11,-251.18 57.89,-195.23 90,-158 94.85,-152.37 100.96,-147.49 107.31,-143.35"/>
<polygon fill="black" stroke="black" points="29.96,-284.22 31.27,-294.73 36.81,-285.7 29.96,-284.22"/>
<polygon fill="black" stroke="black" points="109.23,-146.28 116.04,-138.17 105.66,-140.26 109.23,-146.28"/>
</g>
<!-- Cubes -->
<g id="node18" class="node">
<title>Cubes</title>
<ellipse fill="none" stroke="black" cx="145.9" cy="-72" rx="39.79" ry="18"/>
<text text-anchor="middle" x="145.9" y="-68.3" font-family="Times,serif" font-size="14.00">Cubes</text>
</g>
<!-- Start&#45;&gt;Cubes -->
<g id="edge44" class="edge">
<title>Start&#45;&gt;Cubes</title>
<path fill="none" stroke="black" d="M29.09,-284.9C32.21,-240.51 44.19,-153.62 90,-99 93.89,-94.36 98.77,-90.45 104.01,-87.17"/>
<polygon fill="black" stroke="black" points="25.59,-284.78 28.48,-294.97 32.57,-285.2 25.59,-284.78"/>
<polygon fill="black" stroke="black" points="105.95,-90.1 113.05,-82.23 102.59,-83.95 105.95,-90.1"/>
</g>
<!-- Guantlet -->
<g id="node19" class="node">
<title>Guantlet</title>
<ellipse fill="none" stroke="black" cx="145.9" cy="-18" rx="51.19" ry="18"/>
<text text-anchor="middle" x="145.9" y="-14.3" font-family="Times,serif" font-size="14.00">Guantlet</text>
</g>
<!-- Start&#45;&gt;Guantlet -->
<g id="edge45" class="edge">
<title>Start&#45;&gt;Guantlet</title>
<path fill="none" stroke="black" d="M31.46,-284.64C39.38,-223.59 60.47,-82.24 90,-45 92.71,-41.58 95.96,-38.57 99.52,-35.91"/>
<polygon fill="black" stroke="black" points="27.96,-284.37 30.17,-294.73 34.91,-285.25 27.96,-284.37"/>
<polygon fill="black" stroke="black" points="101.68,-38.68 108.23,-30.35 97.92,-32.78 101.68,-38.68"/>
</g>
<!-- BoxWall -->
<g id="node11" class="node">
<title>BoxWall</title>
<ellipse fill="none" stroke="black" cx="361.93" cy="-589" rx="48.19" ry="18"/>
<text text-anchor="middle" x="361.93" y="-585.3" font-family="Times,serif" font-size="14.00">BoxWall</text>
</g>
<!-- BoxSegment&#45;&gt;BoxWall -->
<g id="edge32" class="edge">
<title>BoxSegment&#45;&gt;BoxWall</title>
<path fill="none" stroke="black" d="M172.39,-651.83C190.01,-640.05 214.4,-625.23 237.79,-616 259.58,-607.4 284.68,-601.27 306.51,-597.05"/>
<polygon fill="black" stroke="black" points="307.41,-600.44 316.61,-595.18 306.14,-593.56 307.41,-600.44"/>
</g>
<!-- CubeBox -->
<g id="node12" class="node">
<title>CubeBox</title>
<ellipse fill="none" stroke="black" cx="361.93" cy="-805" rx="51.99" ry="18"/>
<text text-anchor="middle" x="361.93" y="-801.3" font-family="Times,serif" font-size="14.00">CubeBox</text>
</g>
<!-- BoxSegment&#45;&gt;CubeBox -->
<g id="edge33" class="edge">
<title>BoxSegment&#45;&gt;CubeBox</title>
<path fill="none" stroke="black" d="M156.91,-688.1C171.42,-712.53 200.66,-755.57 237.79,-778 256.62,-789.38 279.66,-795.99 300.69,-799.81"/>
<polygon fill="black" stroke="black" points="300.39,-803.31 310.83,-801.48 301.53,-796.4 300.39,-803.31"/>
</g>
<!-- WideBox -->
<g id="node13" class="node">
<title>WideBox</title>
<ellipse fill="none" stroke="black" cx="361.93" cy="-751" rx="51.99" ry="18"/>
<text text-anchor="middle" x="361.93" y="-747.3" font-family="Times,serif" font-size="14.00">WideBox</text>
</g>
<!-- BoxSegment&#45;&gt;WideBox -->
<g id="edge34" class="edge">
<title>BoxSegment&#45;&gt;WideBox</title>
<path fill="none" stroke="black" d="M172.39,-688.17C190.01,-699.95 214.4,-714.77 237.79,-724 258.52,-732.18 282.24,-738.13 303.3,-742.32"/>
<polygon fill="black" stroke="black" points="302.92,-745.81 313.4,-744.24 304.23,-738.93 302.92,-745.81"/>
</g>
<!-- StaggeredBoxes -->
<g id="node14" class="node">
<title>StaggeredBoxes</title>
<ellipse fill="none" stroke="black" cx="361.93" cy="-697" rx="87.18" ry="18"/>
<text text-anchor="middle" x="361.93" y="-693.3" font-family="Times,serif" font-size="14.00">StaggeredBoxes</text>
</g>
<!-- BoxSegment&#45;&gt;StaggeredBoxes -->
<g id="edge35" class="edge">
<title>BoxSegment&#45;&gt;StaggeredBoxes</title>
<path fill="none" stroke="black" d="M199.53,-676.64C222.8,-679.58 250.75,-683.1 276.8,-686.39"/>
<polygon fill="black" stroke="black" points="276.7,-689.9 287.06,-687.68 277.58,-682.96 276.7,-689.9"/>
</g>
<!-- StaggeredBoxesReverse -->
<g id="node15" class="node">
<title>StaggeredBoxesReverse</title>
<ellipse fill="none" stroke="black" cx="361.93" cy="-643" rx="124.28" ry="18"/>
<text text-anchor="middle" x="361.93" y="-639.3" font-family="Times,serif" font-size="14.00">StaggeredBoxesReverse</text>
</g>
<!-- BoxSegment&#45;&gt;StaggeredBoxesReverse -->
<g id="edge36" class="edge">
<title>BoxSegment&#45;&gt;StaggeredBoxesReverse</title>
<path fill="none" stroke="black" d="M199.53,-663.36C217.1,-661.14 237.35,-658.59 257.43,-656.06"/>
<polygon fill="black" stroke="black" points="258.09,-659.5 267.57,-654.78 257.22,-652.56 258.09,-659.5"/>
</g>
<!-- Staggered&#45;&gt;StaggeredReverse -->
<g id="edge4" class="edge">
<title>Staggered&#45;&gt;StaggeredReverse</title>
<path fill="none" stroke="black" d="M431.65,-421C462.81,-421 500.38,-421 535.05,-421"/>
<polygon fill="black" stroke="black" points="431.29,-417.5 421.29,-421 431.29,-424.5 431.29,-417.5"/>
<polygon fill="black" stroke="black" points="535.23,-424.5 545.23,-421 535.23,-417.5 535.23,-424.5"/>
</g>
<!-- StaggeredWide -->
<g id="node5" class="node">
<title>StaggeredWide</title>
<ellipse fill="none" stroke="black" cx="361.93" cy="-291" rx="82.59" ry="18"/>
<text text-anchor="middle" x="361.93" y="-287.3" font-family="Times,serif" font-size="14.00">StaggeredWide</text>
</g>
<!-- StaggeredWide&#45;&gt;Start -->
<g id="edge7" class="edge">
<title>StaggeredWide&#45;&gt;Start</title>
<path fill="none" stroke="black" d="M291.94,-281.35C236.72,-275.63 157.59,-271.92 90,-286 81.06,-287.86 71.84,-291.08 63.32,-294.66"/>
<polygon fill="black" stroke="black" points="61.76,-291.53 54.06,-298.81 64.62,-297.92 61.76,-291.53"/>
</g>
<!-- StaggeredWideReverse -->
<g id="node6" class="node">
<title>StaggeredWideReverse</title>
<ellipse fill="none" stroke="black" cx="642.31" cy="-268" rx="120.48" ry="18"/>
<text text-anchor="middle" x="642.31" y="-264.3" font-family="Times,serif" font-size="14.00">StaggeredWideReverse</text>
</g>
<!-- StaggeredWide&#45;&gt;StaggeredWideReverse -->
<g id="edge8" class="edge">
<title>StaggeredWide&#45;&gt;StaggeredWideReverse</title>
<path fill="none" stroke="black" d="M449.38,-283.86C473.76,-281.84 500.67,-279.62 526.44,-277.49"/>
<polygon fill="black" stroke="black" points="449.04,-280.37 439.37,-284.68 449.62,-287.35 449.04,-280.37"/>
<polygon fill="black" stroke="black" points="526.95,-280.96 536.63,-276.65 526.37,-273.98 526.95,-280.96"/>
</g>
<!-- StaggeredWideReverse&#45;&gt;Start -->
<g id="edge9" class="edge">
<title>StaggeredWideReverse&#45;&gt;Start</title>
<path fill="none" stroke="black" d="M614.38,-250.32C584.48,-231.82 534.06,-203.99 486.07,-193 403.16,-174.02 111.89,-180.62 90,-194 57.6,-213.8 41.33,-256.62 33.78,-285.13"/>
<polygon fill="black" stroke="black" points="30.36,-284.37 31.38,-294.91 37.16,-286.04 30.36,-284.37"/>
</g>
<!-- Funnel&#45;&gt;Staggered -->
<g id="edge12" class="edge">
<title>Funnel&#45;&gt;Staggered</title>
<path fill="none" stroke="black" d="M185.65,-452.12C217.59,-446.45 263.44,-438.31 300.23,-431.78"/>
<polygon fill="black" stroke="black" points="301.12,-435.17 310.35,-429.98 299.89,-428.28 301.12,-435.17"/>
</g>
<!-- Funnel&#45;&gt;StaggeredReverse -->
<g id="edge13" class="edge">
<title>Funnel&#45;&gt;StaggeredReverse</title>
<path fill="none" stroke="black" d="M362.93,-467C417.34,-456.68 431.42,-456.97 486.07,-448 510.74,-443.95 537.59,-439.35 561.91,-435.11"/>
<polygon fill="black" stroke="black" points="562.56,-438.55 571.81,-433.38 561.35,-431.65 562.56,-438.55"/>
</g>
<!-- Funnel&#45;&gt;StaggeredWide -->
<g id="edge14" class="edge">
<title>Funnel&#45;&gt;StaggeredWide</title>
<path fill="none" stroke="black" d="M160.02,-441.91C176.58,-421.09 206.69,-385.64 237.79,-361 262.15,-341.71 292.46,-324.4 316.91,-311.83"/>
<polygon fill="black" stroke="black" points="318.63,-314.88 325.97,-307.25 315.47,-308.64 318.63,-314.88"/>
</g>
<!-- Funnel&#45;&gt;StaggeredWideReverse -->
<g id="edge15" class="edge">
<title>Funnel&#45;&gt;StaggeredWideReverse</title>
<path fill="none" stroke="black" d="M185.95,-465.65C229.16,-471.81 300.65,-478.43 360.93,-467"/>
<path fill="none" stroke="black" d="M362.93,-467C417.34,-456.68 439.39,-477.79 486.07,-448 510.38,-432.48 504.09,-416.56 522.07,-394 551.67,-356.86 590.04,-317.67 615.15,-293.04"/>
<polygon fill="black" stroke="black" points="617.78,-295.37 622.5,-285.89 612.89,-290.36 617.78,-295.37"/>
</g>
<!-- Choose&#45;&gt;Staggered -->
<g id="edge17" class="edge">
<title>Choose&#45;&gt;Staggered</title>
<path fill="none" stroke="black" d="M178.39,-325.29C186.49,-329.28 194.87,-334.2 201.79,-340 222.51,-357.35 215.42,-373.84 237.79,-389 255,-400.66 276.19,-408.07 296.12,-412.79"/>
<polygon fill="black" stroke="black" points="295.57,-416.25 306.08,-414.95 297.05,-409.41 295.57,-416.25"/>
</g>
<!-- Choose&#45;&gt;StaggeredReverse -->
<g id="edge18" class="edge">
<title>Choose&#45;&gt;StaggeredReverse</title>
<path fill="none" stroke="black" d="M179.33,-325.06C220.78,-339.84 295.06,-364.26 360.93,-375"/>
<path fill="none" stroke="black" d="M362.93,-375C417.58,-383.91 431.42,-385.03 486.07,-394 510.74,-398.05 537.59,-402.65 561.91,-406.89"/>
<polygon fill="black" stroke="black" points="561.35,-410.35 571.81,-408.62 562.56,-403.45 561.35,-410.35"/>
</g>
<!-- Choose&#45;&gt;StaggeredWide -->
<g id="edge19" class="edge">
<title>Choose&#45;&gt;StaggeredWide</title>
<path fill="none" stroke="black" d="M188.93,-308.68C213.97,-306.11 246.67,-302.74 276.81,-299.65"/>
<polygon fill="black" stroke="black" points="277.34,-303.11 286.92,-298.61 276.62,-296.15 277.34,-303.11"/>
</g>
<!-- Choose&#45;&gt;StaggeredWideReverse -->
<g id="edge20" class="edge">
<title>Choose&#45;&gt;StaggeredWideReverse</title>
<path fill="none" stroke="black" d="M168.4,-297.42C186.06,-285.65 212.24,-270.45 237.79,-264 341.64,-237.79 465.35,-244.31 548.17,-253.82"/>
<polygon fill="black" stroke="black" points="547.98,-257.32 558.32,-255.02 548.8,-250.37 547.98,-257.32"/>
</g>
<!-- LeftWall&#45;&gt;Staggered -->
<g id="edge23" class="edge">
<title>LeftWall&#45;&gt;Staggered</title>
<path fill="none" stroke="black" d="M186.9,-377.09C220.41,-385.55 268.59,-397.7 305.76,-407.08"/>
<polygon fill="black" stroke="black" points="305.38,-410.6 315.94,-409.65 307.1,-403.81 305.38,-410.6"/>
</g>
<!-- LeftWall&#45;&gt;StaggeredReverse -->
<g id="edge24" class="edge">
<title>LeftWall&#45;&gt;StaggeredReverse</title>
<path fill="none" stroke="black" d="M195.26,-365.4C238.87,-364.77 304.59,-365.82 360.93,-375"/>
</g>
<!-- LeftWall&#45;&gt;StaggeredWide -->
<g id="edge25" class="edge">
<title>LeftWall&#45;&gt;StaggeredWide</title>
<path fill="none" stroke="black" d="M176.2,-352.64C201.53,-340.26 234.58,-324.18 237.79,-323 255.37,-316.53 274.81,-310.84 292.96,-306.12"/>
<polygon fill="black" stroke="black" points="294.05,-309.45 302.88,-303.59 292.33,-302.66 294.05,-309.45"/>
</g>
<!-- LeftWall&#45;&gt;StaggeredWideReverse -->
<g id="edge26" class="edge">
<title>LeftWall&#45;&gt;StaggeredWideReverse</title>
<path fill="none" stroke="black" d="M193.99,-362.72C259.92,-356.17 383.19,-341.82 486.07,-318 520.02,-310.14 557.21,-298.28 586.68,-288.08"/>
<polygon fill="black" stroke="black" points="588.07,-291.3 596.36,-284.7 585.76,-284.69 588.07,-291.3"/>
</g>
<!-- RightWall&#45;&gt;Staggered -->
<g id="edge27" class="edge">
<title>RightWall&#45;&gt;Staggered</title>
<path fill="none" stroke="black" d="M164.43,-238.15C176.3,-250.54 191.61,-268.17 201.79,-286 225.83,-328.11 202.12,-356.14 237.79,-389 253.01,-403.02 273.58,-411.06 293.54,-415.63"/>
<polygon fill="black" stroke="black" points="293.09,-419.11 303.58,-417.66 294.47,-412.24 293.09,-419.11"/>
</g>
<!-- RightWall&#45;&gt;StaggeredReverse -->
<g id="edge28" class="edge">
<title>RightWall&#45;&gt;StaggeredReverse</title>
<path fill="none" stroke="black" d="M362.93,-207C422.09,-218.72 436.72,-229.34 486.07,-264 514.84,-284.21 582.1,-356.08 617.9,-395.19"/>
<polygon fill="black" stroke="black" points="615.71,-397.98 625.04,-403.01 620.88,-393.26 615.71,-397.98"/>
</g>
<!-- RightWall&#45;&gt;StaggeredWide -->
<g id="edge29" class="edge">
<title>RightWall&#45;&gt;StaggeredWide</title>
<path fill="none" stroke="black" d="M185.65,-233.68C219.16,-244.63 267.99,-260.6 305.61,-272.91"/>
<polygon fill="black" stroke="black" points="304.81,-276.33 315.4,-276.11 306.99,-269.68 304.81,-276.33"/>
</g>
<!-- RightWall&#45;&gt;StaggeredWideReverse -->
<g id="edge30" class="edge">
<title>RightWall&#45;&gt;StaggeredWideReverse</title>
<path fill="none" stroke="black" d="M192.85,-211.17C236.5,-203.43 303.76,-195.67 360.93,-207"/>
<path fill="none" stroke="black" d="M362.93,-207C432.06,-220.7 510.45,-238.04 566.39,-250.73"/>
<polygon fill="black" stroke="black" points="565.69,-254.16 576.22,-252.96 567.24,-247.33 565.69,-254.16"/>
</g>
<!-- Obeslisk -->
<g id="node16" class="node">
<title>Obeslisk</title>
<ellipse fill="none" stroke="black" cx="642.31" cy="-670" rx="50.09" ry="18"/>
<text text-anchor="middle" x="642.31" y="-666.3" font-family="Times,serif" font-size="14.00">Obeslisk</text>
</g>
<!-- BoxWall&#45;&gt;Obeslisk -->
<g id="edge37" class="edge">
<title>BoxWall&#45;&gt;Obeslisk</title>
<path fill="none" stroke="black" d="M405.13,-596.96C429.04,-601.79 459.42,-608.47 486.07,-616 524.35,-626.81 566.98,-641.86 597.86,-653.33"/>
<polygon fill="black" stroke="black" points="596.86,-656.69 607.46,-656.92 599.32,-650.14 596.86,-656.69"/>
</g>
<!-- CubeBox&#45;&gt;Obeslisk -->
<g id="edge38" class="edge">
<title>CubeBox&#45;&gt;Obeslisk</title>
<path fill="none" stroke="black" d="M411.07,-798.93C434.39,-794.88 462.4,-788.34 486.07,-778 535.57,-756.38 585.57,-717.94 614.97,-693.23"/>
<polygon fill="black" stroke="black" points="617.36,-695.8 622.7,-686.65 612.82,-690.46 617.36,-695.8"/>
</g>
<!-- WideBox&#45;&gt;Obeslisk -->
<g id="edge39" class="edge">
<title>WideBox&#45;&gt;Obeslisk</title>
<path fill="none" stroke="black" d="M407.99,-742.46C431.44,-737.68 460.48,-731.23 486.07,-724 524.35,-713.19 566.98,-698.14 597.86,-686.67"/>
<polygon fill="black" stroke="black" points="599.32,-689.86 607.46,-683.08 596.86,-683.31 599.32,-689.86"/>
</g>
<!-- StaggeredBoxes&#45;&gt;Obeslisk -->
<g id="edge40" class="edge">
<title>StaggeredBoxes&#45;&gt;Obeslisk</title>
<path fill="none" stroke="black" d="M441.21,-689.41C486.43,-685.02 542.33,-679.6 583.54,-675.6"/>
<polygon fill="black" stroke="black" points="584.07,-679.07 593.69,-674.62 583.39,-672.1 584.07,-679.07"/>
</g>
<!-- StaggeredBoxesReverse&#45;&gt;Obeslisk -->
<g id="edge41" class="edge">
<title>StaggeredBoxesReverse&#45;&gt;Obeslisk</title>
<path fill="none" stroke="black" d="M465.8,-652.98C505.52,-656.83 549.48,-661.09 583.48,-664.39"/>
<polygon fill="black" stroke="black" points="583.4,-667.9 593.69,-665.38 584.07,-660.93 583.4,-667.9"/>
</g>
<!-- Obeslisk&#45;&gt;Start -->
<g id="edge42" class="edge">
<title>Obeslisk&#45;&gt;Start</title>
<path fill="none" stroke="black" d="M623.41,-653.16C596.13,-628.59 541.46,-583.51 486.07,-562 320.51,-497.71 225.98,-623.24 90,-509 39.87,-466.88 29.75,-384.48 28.04,-341.15"/>
<polygon fill="black" stroke="black" points="31.53,-340.93 27.76,-331.03 24.54,-341.12 31.53,-340.93"/>
</g>
</g>
</svg>
